<?xml version="1.0" encoding="UTF-8"?><svg id="Layer_1" xmlns="http://www.w3.org/2000/svg" viewBox="0 0 512 512"><defs><style>.cls-1{fill:#f58220;}</style></defs><path class="cls-1" d="M256.28,478.77c29.81,.05,59.78-8.03,84.95-24.16,15.24-8.84,28.83-20.67,39.97-34.31,7.4-7.94,12.73-17.34,18.44-26.51,9.46-18.37,16.47-38.19,18.39-58.88,2.76-23.08,.54-46.72-6.13-68.94-4.89-16.89-12.64-32.88-22.41-47.49-13.45-19.85-30.81-37.39-51.57-49.45-4.67-2.92-8.69-5.86-13.41-8.74-6.95-4.81-18.2-10.84-26.45-4.42-8.39,8.25-7.99,21.26-8.72,32.34-.05,78.47-.42,156.93-.26,235.4-.49,6.59,1.55,14.57-5.2,18.43-6.99,4.24-14.83,7.01-23,8.29-6.7,1.92-13.02-.99-19.55-2.22-5.58-1.93-11.66-4.35-15.73-8.24-5.91-5.21-2.36-14.4-3.33-21.71-.1-80.26,.21-160.54-.15-240.79-1.17-8.62-2.12-19.16-10.17-24.3-3.72-1.9-7.87-1.64-11.69-.03-9.13,2.67-16.89,10.39-24.62,14.98-13.46,7.92-25.87,17.73-36.33,29.44-9.24,9.33-16.57,20.29-23.34,31.56-9.66,17.58-17.02,36.49-20.35,56.32-3.38,18.32-3.72,37.14-.84,55.58,4.34,28.07,16.48,54.85,34.13,77.05,17.46,22.23,41.45,38.55,67.32,49.6,19.17,7.08,39.53,11.45,60.06,11.19h0Z"/><path class="cls-1" d="M256.9,111.15c2.2-.09,4.48,.24,6.59-.31,1.34-.09,2.55-1.09,3.97-.84,.91-.73,1.93-1.49,3.1-1.54,1.07-.66,2.74-.42,3.28-1.86,1.18-.41,2.13-1.09,3.2-1.68,1.02-.5,1.77-1.57,2.74-2.23,1.5-.64,1.98-2.34,3.42-3.07,.73-.91,1.38-1.89,2.31-2.66,.92-1.35,1.86-2.66,2.41-4.23,.94-.72,1.1-2.01,1.74-2.99,.49-1.09,1.15-2.05,1.39-3.22,.48-1.01,.94-2.05,.8-3.21,.53-1.4,.15-3.03,1.14-4.3-.07-3.24,.14-6.56-.1-9.75-1.05-1.34-.53-3.09-1.04-4.62-.15-1.11-.38-2.3-1.06-3.2-.81-3.14-2.87-5.73-4.33-8.56-.71-.95-1.09-1.94-2.13-2.58-.99-1.39-2.48-2.33-3.27-3.87-1.43-.09-2.15-1.56-3.25-2.26-.77-.81-1.98-1.16-2.83-1.82-1.03-.42-1.53-1.5-2.82-1.45-1.81-.77-3.56-1.9-5.57-2.26-1.1-.53-2.01-1.26-3.32-.94-1.43-.03-2.83-.34-4.27-.34-2.47-.29-4.98,.03-7.43,.14-1.5,.56-3.3-.32-4.6,.88-1.58,.77-3.35,.85-4.86,1.74-.98,.75-2.35,.69-3.11,1.71-1.32,.24-2.23,1.35-3.49,1.79-1.05,.87-2.18,1.87-3.13,2.73-1.35-.17-1.57,1.55-2.52,2.25-1.01,.71-1.24,1.91-2.18,2.63-1.79,2.01-3.33,4.31-4.36,6.81-.17,1.19-1.24,1.87-1.29,3.11-.55,1.16-1.06,2.15-1.3,3.36-.29,1.25,.07,2.7-.84,3.81,.14,2.95-.58,5.91,0,8.84-.05,1.57-.12,3.14,.68,4.55-.18,1.94,.66,3.68,1.47,5.37-.12,1.36,1.07,1.85,1.25,3.04,.44,1.02,.71,2.11,1.42,3,.61,2.04,2.37,3.3,3.63,4.91,.82,.73,1.05,2.02,2.17,2.54,.79,.86,1.39,1.88,2.58,2.3,.69,1.1,2.15,1.36,2.94,2.43,1.26,1.14,3.21,.95,4.21,2.44,.88,.62,2.25,.49,3.06,1.04,.89,.48,2.06,.77,3.01,1.22,1.37,.1,2.46,1.07,3.85,.84,2.13,.66,4.53,.14,6.76,.31h0Z"/><path class="cls-1" d="M336.55,45.36c4.08-8.99,14.89-15.85,24.08-8.99,18.18,11.59,31.96,29.17,47.71,43.87,20.54,19.94,39.23,42.24,52.06,68,13.35,26.38,21.21,55.42,22.18,85.02,3.11,29.89-1.91,60.54-10.82,89.1-18.32,53.73-56.16,101.34-106.34,128.52-69.41,39.21-159.32,36.6-227.04-4.96-64.46-38.47-106.28-111.02-109.57-185.77-1.73-34.35,3.7-69.09,17.51-100.74,13.33-31.64,35.54-58.76,60.33-82.27,14.05-14.13,27.03-29.71,43.7-40.64,7.08-5.43,18.45-4.42,22.23,4.16,8.37,13.25,14.14,29.7,13.67,45.81-2.07,26.54-25.32,42.82-43.87,58.6-21.99,18.11-37.33,42.77-50.05,68.05-11.49,24.64-17.53,51.64-16.65,79.26,.15,59.19,29.35,117.88,77.25,152.93,31.41,21.99,69.45,34.7,108.03,33.44,52.74-.67,103.24-28.03,135-69.62,28.41-36.65,42.88-83.84,39.86-130.18-1.26-28.26-10.08-55.68-23.21-80.21-12.22-22.06-28.8-41.94-48.34-57.79-14.58-13.57-32.4-26.35-37.1-46.69-3.52-16.75,2.22-33.87,9.37-48.92h0Z"/></svg>